<?xml version="1.0" encoding="UTF-8"?>
<!-- Created with Inkscape (http://www.inkscape.org/) -->
<svg width="200mm" height="200mm" version="1.1" viewBox="0 0 200 200" xml:space="preserve" xmlns="http://www.w3.org/2000/svg" xmlns:xlink="http://www.w3.org/1999/xlink"><defs><linearGradient id="linearGradient3263" x1="101.29" x2="101.29" y1="172.11" y2="22.105" gradientTransform="matrix(1.2732 0 0 1.2732 -23.712 -22.522)" gradientUnits="userSpaceOnUse"><stop stop-color="#e79032" offset="0"/><stop stop-color="#a565af" offset=".5"/><stop stop-color="#3a1347" offset="1"/></linearGradient></defs><path d="m28.906 198.52c-3.6176-0.71688-8.4442-4.6364-10.357-8.4102-1.9482-3.8446-1.8393 1.4351-1.8383-89.096 1e-3 -92.143-0.1605-85.585 2.2266-90.435 1.9612-3.9851 5.4993-7.0412 9.8759-8.5303l2.204-0.74991 72.765-0.05839c43.383-0.03481 73.506 0.06757 74.6 0.25355 2.05 0.34843 3.5022 1.4528 4.2699 3.247 0.38976 0.91093 0.46383 14.668 0.46383 86.156 0 84.422-5e-3 85.077-0.66901 85.741-0.36796 0.36795-1.2608 0.76364-1.9841 0.8793-1.531 0.24481-1.8517 0.76363-2.4376 3.9432-0.44188 2.3981-0.21532 4.951 0.66126 7.4515 0.51248 1.4618 0.73452 1.7006 1.8799 2.022 3.1675 0.88871 3.7122 5.2667 0.89358 7.1824-0.8235 0.55969-4.9417 0.5944-75.994 0.64055-41.318 0.0269-75.77-0.0795-76.561-0.23612zm144.1-7.6226c2e-5 -0.034-0.47137-0.86779-1.0475-1.8528-0.57616-0.98505-1.1611-2.0184-1.2999-2.2963-0.22086-0.44219-4.3229-0.52635-32.836-0.67375-31.763-0.1642-32.595-0.1849-33.061-0.82236-0.6626-0.90627-0.59753-1.7532 0.19564-2.5464 0.66438-0.66437 1.1229-0.67375 32.946-0.67375 33.464 0 33.081 0.0154 33.081-1.3367 0-0.2905 0.37899-1.0859 0.84219-1.7676 0.4632-0.68168 0.84219-1.325 0.84219-1.4296 0-0.10466-31.797-0.15054-70.66-0.10211l-70.66 0.0881-1.6224 0.79877c-2.4016 1.1824-3.4307 2.9134-3.4307 5.7703 0 1.8781 0.14919 2.4643 0.92578 3.6378 1.0969 1.6575 2.1679 2.4174 4.0976 2.9075 0.98626 0.25049 22.832 0.36058 71.553 0.36058 38.573 0 70.133-0.0279 70.133-0.0619zm-142.33-20.319h0.73461l0.23606-47.752c0.34841-70.481 0.25918-113.95-0.2339-113.94-0.75385 0.01044-3.0314 1.5108-3.7365 2.4615l-0.70542 0.95109-0.08699 79.614-0.08699 79.614 1.5723-0.47317c0.86474-0.26026 1.9028-0.47318 2.3069-0.47318zm79.601-16.182c15.762-1.6794 25.645-7.7497 30.899-18.978 2.5572-5.4648 2.6209-5.9169 2.7594-19.582 0.0749-7.3802 0.26151-12.479 0.47698-13.025 0.37991-0.9628 2.2496-1.9369 5.0913-2.6524 1.5611-0.39309 2.5864-1.1404 2.1556-1.5712-0.12095-0.12096-2.1512-0.22438-4.5116-0.22978-4.1977-0.01018-4.3765 0.02075-8.1657 1.3889-10.072 3.6363-27.793 5.3525-46.268 4.4807-13.417-0.63319-24.331-2.4131-30.54-4.9806-2.715-1.1228-3.0489-1.181-6.4404-1.1232-1.9673 0.03348-3.9876 0.17078-4.4894 0.305-0.87326 0.23355-0.88604 0.26757-0.29712 0.79134 0.33845 0.30102 1.7523 0.8824 3.1419 1.292 3.6471 1.0749 4.2916 1.4788 4.6987 2.9445 0.21032 0.75733 0.35144 5.7286 0.35256 12.421 0.0017 10.66 0.03789 11.3 0.80927 14.341 2.1903 8.6344 8.1174 15.823 16.542 20.062 3.7885 1.9065 9.8581 3.4883 15.665 4.0825 4.1228 0.42189 14.301 0.44098 18.12 0.034zm-18.289-4.7288c-8.09-1.0908-14.735-4.1152-19.56-8.903-3.225-3.1999-5.2079-6.3854-6.6516-10.686l-1.0495-3.1263-0.10644-9.9378c-0.11835-11.049-0.04185-11.543 1.8179-11.725 0.80746-0.0791 1.2119 0.10542 1.7609 0.8034 0.68403 0.86961 0.7127 1.2572 0.7127 9.6336 0 11.904 0.63534 14.832 4.2321 19.507 4.1073 5.3377 10.975 9.0546 18.953 10.257 3.8701 0.58337 14.492 0.66091 18.018 0.13153 10.656-1.6001 17.683-5.9908 21.64-13.522 1.893-3.6023 2.162-5.5829 2.1686-15.967 5e-3 -8.7263 0.0371-9.1741 0.70406-10.022 0.84767-1.0776 2.0693-1.152 3.0364-0.18488 0.6875 0.68749 0.70005 0.9265 0.57907 11.033l-0.12363 10.33-1.1001 3.1821c-3.4376 9.9436-11.273 16.219-23.423 18.76-2.9158 0.6098-18.053 0.91498-21.608 0.43562zm-38.302-43.484-0.10182-1.7357-2.047-0.55878c-2.866-0.78236-4.4789-1.8675-5.2282-3.5173-0.34462-0.75881-0.62934-1.6828-0.63271-2.0534-0.01846-2.0269 2.9339-4.2109 5.6922-4.2109 1.2529 0 1.4104-0.07856 1.1814-0.58954-0.14533-0.32424-0.32511-1.2717-0.39952-2.1055l-0.13528-1.5159-2.8809 0.05526c-3.6043 0.06914-5.3649 0.71809-7.123 2.6254-1.3648 1.4807-2.4073 4.0611-2.4073 5.959 0 2.3728 2.0761 6.2986 4.0888 7.7317 1.7426 1.2408 3.3209 1.6211 6.793 1.6366l3.3021 0.0148-0.10182-1.7357zm103.34 1.171c2.4626-0.83911 4.9914-3.4981 5.7243-6.0191 1.2534-4.3116-0.48264-8.6577-4.2304-10.591-2.1848-1.1268-8.3978-1.309-7.9853-0.23412 0.0854 0.22264 0.0464 1.123-0.0868 2.0007l-0.24219 1.5959h1.3562c2.7461 0 5.6068 2.2072 5.6102 4.3285 3e-3 1.3242-1.0474 3.0991-2.3253 3.9324-0.66585 0.43419-2.2163 1.1103-3.4454 1.5024l-2.2347 0.71299 0.0252 1.6678 0.0252 1.6678h3.076c1.9943 0 3.6588-0.19858 4.7333-0.5647zm-34.724-8.4958c12.935-1.75 20.426-4.0798 21.807-6.7816 0.31871-0.62373 0.5406-1.1729 0.49307-1.2205-0.0475-0.04749-0.99046 0.3438-2.0954 0.86962-8.6268 4.1051-30.031 6.6672-48.245 5.775-15.742-0.77114-28.754-3.0569-33.736-5.9261-1.7065-0.98274-2.0907-0.85324-1.3066 0.44035 1.6644 2.7457 9.4577 5.1264 22.251 6.7969 7.0647 0.92254 7.4862 0.93864 22.309 0.85188 11.291-0.06608 13.895-0.17936 18.524-0.8056zm-9.4226-6.102c17.585-1.1106 29.035-3.9076 31.01-7.5753 0.62529-1.1611 0.6248-1.2004-0.0306-2.418-0.36637-0.68073-1.2725-1.6862-2.0136-2.2344-4.3631-3.2271-15.283-6.5848-25.255-7.7658l-3.3585-0.39773-2.1999 2.2271c-2.5737 2.6054-4.1831 3.3029-8.2637 3.5812-5.4191 0.36959-9.6202-1.5954-11.953-5.5909-0.2334-0.3997-0.87008-0.38502-4.2668 0.09842-12.942 1.8419-22.614 4.9431-26.234 8.4122-1.2122 1.1615-1.5078 1.6713-1.5078 2.6008 0 3.9247 9.3686 7.0679 25.453 8.5396 9.6471 0.88269 19.946 1.0709 28.621 0.52298zm-4.6967-21.872c1.2311-1.8603 1.4536-4.5145 0.53014-6.3245-1.8942-3.713-6.6699-5.2087-10.675-3.3434-2.8906 1.346-4.5113 4.0915-4.0059 6.7857 0.24974 1.3313 1.9342 4.0462 2.6905 4.3364 0.40279 0.15457 0.43413 0.06506 0.15788-0.45117-1.3974-2.611 1.5797-6.4152 5.0204-6.4152 1.8032 0 3.9138 1.0839 4.5658 2.3447 0.69988 1.3534 0.66015 3.6676-0.0773 4.4995-0.57229 0.64563-0.56722 0.65337 0.17318 0.26479 0.4195-0.22016 1.1488-0.98374 1.6207-1.6968zm-18.785-17.641c0.81199-0.86433 1.4101-3.4614 1.4101-6.1225 0-2.1274-0.95988-6.0006-2.5176-10.159-3.0008-8.0106-2.9421-11.883 0.2698-17.799 0.51697-0.9522 0.5072-1.0382-0.20483-1.8043-1.7424-1.8747-3.0555-1.6325-4.6327 0.85455-1.8364 2.8957-2.5193 5.5625-2.4832 9.6978 0.03177 3.6458 0.06715 3.8063 2.1897 9.9378l2.1574 6.2322v4.3249c0 4.1388 0.03423 4.3526 0.79529 4.9689 1.061 0.85918 2.1292 0.8126 3.0161-0.13151zm15.573 0.4309c0.94223-0.50426 1.2875-1.3383 1.6697-4.0332 0.47402-3.3423 0.0271-5.7535-2.3727-12.803-1.8356-5.3919-2.0066-6.1398-2.0027-8.7588 5e-3 -3.294 0.57691-5.7762 1.8198-7.8971 1.0662-1.8193 1.0814-2.2365 0.11344-3.1224-1.4252-1.3044-2.1893-1.292-3.461 0.05637-2.3826 2.5263-3.7046 7.0985-3.4134 11.805 0.19463 3.1459 0.77223 5.4688 2.5313 10.18 1.7097 4.5788 2.2247 7.7893 1.7357 10.82l-0.41203 2.5541 0.89687 0.77146c0.97074 0.83498 1.8815 0.96927 2.895 0.42685zm16.15-0.60871c0.73249-0.7325 1.01-1.4069 1.198-2.9116 0.47419-3.7953 0.0181-6.7501-1.9579-12.685-1.0163-3.0523-1.9517-6.4515-2.0787-7.5538-0.33454-2.9034 0.29385-6.3172 1.6711-9.0787 0.64686-1.297 1.1754-2.5212 1.1746-2.7205-3e-3 -0.56667-1.4261-1.7547-2.389-1.9935-0.71592-0.17756-1.0614 1.21e-4 -1.935 0.99502-2.3842 2.7154-3.4658 6.1901-3.4784 11.174-8e-3 3.1708 0.10122 3.741 1.5429 8.0554 0.85333 2.5537 1.7851 5.5446 2.0706 6.6464 0.53731 2.0735 0.68379 6.0684 0.29795 8.1251-0.18444 0.98313-0.0783 1.3217 0.63972 2.0396 1.1158 1.1158 2.0628 1.0889 3.2441-0.09244zm-49.45-3.4469 1.2445-0.41756-0.97797-1.4214c-2.3471-3.4114-6.4531-6.6822-11.235-8.9495l-2.7409-1.2997 2.5266-0.0025c4.6135-0.0038 8.4736 1.9122 12.243 6.0772 1.9865 2.1951 2.1579 2.1856 2.915-0.16278 0.65059-2.018 0.25963-5.1784-0.96408-7.7935-1.4045-3.0014-4.7455-6.4504-7.8064-8.0589-2.4315-1.2778-6.7276-2.543-8.6348-2.543h-1.1292l0.20733 1.4317c0.11403 0.78745 0.40727 2.3404 0.65164 3.451 0.24437 1.1106 0.39509 2.0685 0.33494 2.1286-0.06015 0.0601-0.98581-0.05271-2.057-0.25069-1.0712-0.19802-2.9052-0.36005-4.0755-0.36005-2.4937 0-2.4113-0.23758-1.481 4.2705 1.3624 6.6018 5.7083 12.083 11.144 14.054 1.769 0.64168 7.7416 0.5479 9.8349-0.15443zm71.256 0.1581c3.5476-1.1808 7.1861-4.5867 9.2345-8.6443 1.0531-2.086 2.309-6.7777 2.3129-8.6401l3e-3 -1.1455-3.4125 0.22364c-1.8769 0.12299-3.7967 0.32007-4.2663 0.43793-0.74229 0.18631-0.81854 0.1307-0.58365-0.42564 0.35209-0.83384 1.1598-4.8028 1.1757-5.7773 0.0152-0.92895-0.6126-0.96729-4.0923-0.24993-7.684 1.5841-13.877 7.7248-14.336 14.215-0.15301 2.1615 0.21282 4.4036 0.89003 5.4547 0.23808 0.36952 0.54653 0.18956 1.4318-0.83534 4.0745-4.7171 8.3602-6.9079 13.411-6.8557 1.8912 0.01961 2.0839 0.07474 1.3609 0.38989-5.6215 2.4503-9.2311 4.9645-12.212 8.5061-1.0654 1.2659-1.937 2.4181-1.937 2.5606 0 0.27264 1.6068 0.84969 3.0319 1.0888 2.1692 0.36404 6.475 0.20051 7.989-0.30341z" fill="url(#linearGradient3263)"/></svg>
